# xmcd CD database file
#
# Track frame offsets:
#	150
#	19183
#	34116
#	45434
#	63539
#	80148
#	98978
#	126729
#	141263
#	152870
#	167582
#	180505
#	200844
#	219321
#	234108
#	251329
#	267345
#
# Disc length: 3685 seconds
#
# Revision: 1
# Processed by: cddbd v1.5.2PL0 Copyright (c) Steve Scherf et al.
# Submitted via: CDex 1.51
#
DISCID=f20e6311
DTITLE=Various Artist - Beatles Blues
DYEAR=2007
DGENRE=Blues
TTITLE0=Webb, Stan - She Loves You
TTITLE1=Green, Earl - From Me to You
TTITLE2=James, Fred - I'm Down
TTITLE3=Walker, Charles - Don't Let Me Down
TTITLE4=Lamb, Paul - Norwegian Wood
TTITLE5=Jones, Johnny - Come Together
TTITLE6=Webb, Stan - I Saw Her Standing There
TTITLE7=Freen, Earl - Run For Your Life
TTITLE8=Garner, Al - The Word
TTITLE9=Turner, Ruby - You Can't Do That
TTITLE10=Gaines, Earl - Oh! Darling
TTITLE11=James, Frad - Why Don't We Do It in the Road?
TTITLE12=Mo' Indigo - I Call Your Name
TTITLE13=Lamb, Paul - Get Back
TTITLE14=Shelton, Roscoe - Let It Be
TTITLE15=Wilson, Tony - I Feel Fine
TTITLE16=Moses, Lee - Day Tripper
EXTD=YEAR: 2007
EXTT0=
EXTT1=
EXTT2=
EXTT3=
EXTT4=
EXTT5=
EXTT6=
EXTT7=
EXTT8=
EXTT9=
EXTT10=
EXTT11=
EXTT12=
EXTT13=
EXTT14=
EXTT15=
EXTT16=
PLAYORDER=
